<svg xmlns="http://www.w3.org/2000/svg" xmlns:xlink="http://www.w3.org/1999/xlink" viewBox="0 0 103.92 116.51"><defs><style>.cls-1{fill:url(#linear-gradient);}.cls-2{fill:#101338;}</style><linearGradient id="linear-gradient" y1="58.26" x2="103.92" y2="58.26" gradientUnits="userSpaceOnUse"><stop offset="0" stop-color="#c6ff7d"/><stop offset="0.26" stop-color="#c4fc7c"/><stop offset="0.43" stop-color="#bdf37b"/><stop offset="0.58" stop-color="#b2e478"/><stop offset="0.72" stop-color="#a3ce74"/><stop offset="0.85" stop-color="#8fb26e"/><stop offset="0.97" stop-color="#769068"/><stop offset="1" stop-color="#6f8666"/></linearGradient></defs><g id="Layer_2" data-name="Layer 2"><g id="Layer_1-2" data-name="Layer 1"><path class="cls-1" d="M0,34.76v47a11.27,11.27,0,0,0,5.63,9.76L46.33,115a11.24,11.24,0,0,0,11.27,0L98.29,91.51a11.25,11.25,0,0,0,5.63-9.76v-47A11.27,11.27,0,0,0,98.29,25L57.6,1.51a11.29,11.29,0,0,0-11.27,0L5.63,25A11.3,11.3,0,0,0,0,34.76Z"/><rect class="cls-2" x="20.11" y="47.24" width="9.79" height="2.45" rx="1.21"/><rect class="cls-2" x="21.34" y="57.03" width="2.45" height="2.45" rx="1.21"/><rect class="cls-2" x="15.22" y="66.82" width="6.12" height="2.45" rx="1.21"/><rect class="cls-2" x="22.56" y="71.72" width="3.67" height="2.45" rx="1.21"/><path class="cls-2" d="M55.74,65h7.49c11.61,0,16.91-2.5,16.91-12.14V50c0-10-4.86-12.51-16.78-12.51H27.45a1.23,1.23,0,0,0,0,2.45H34.8a1.23,1.23,0,0,1,0,2.45H29.9a1.23,1.23,0,0,0,0,2.45h7.34a1.22,1.22,0,1,1,0,2.44H32.35a1.23,1.23,0,0,0,0,2.45,1.23,1.23,0,0,1,0,2.45H22.56a1.23,1.23,0,0,0,0,2.45h8.57a1.22,1.22,0,1,1,0,2.44H27.45a1.23,1.23,0,0,0,0,2.45H34.8a1.23,1.23,0,0,1,0,2.45H20.11a1.23,1.23,0,0,0,0,2.45H30v0a1.2,1.2,0,0,1,0,2.4v0H25a1.23,1.23,0,1,0,0,2.45H34.8a1.23,1.23,0,0,1,0,2.45H28.68a1.23,1.23,0,1,0,0,2.45h3.67a1.22,1.22,0,1,1,0,2.44H22.56a1.23,1.23,0,0,0,0,2.45h16.9V63.93l24.9,15.13H80.71ZM39.46,45.26H62.73c6.24,0,7.93.73,7.93,5.19V52.7c0,4.52-1.81,5.25-7.93,5.25H39.46Z"/></g></g></svg>