<svg xmlns="http://www.w3.org/2000/svg" xmlns:xlink="http://www.w3.org/1999/xlink" viewBox="0 0 168.55 138"><defs><style>.cls-1{fill:#171c4b;}.cls-2{font-size:36px;fill:#e0e0e0;font-family:NeuropoliticalRg-Regular, Neuropolitical;}.cls-3{fill:none;stroke:#e0e0e0;stroke-miterlimit:10;}.cls-4{fill:#8f52fb;}.cls-5{fill:#8768fb;}.cls-6{fill:#7694fb;}.cls-7{fill:#6bb1fc;}.cls-8{fill:url(#linear-gradient);}</style><linearGradient id="linear-gradient" x1="86.09" y1="22.22" x2="86.09" y2="63.39" gradientUnits="userSpaceOnUse"><stop offset="0" stop-color="#914efb"/><stop offset="0.22" stop-color="#9051fb"/><stop offset="0.38" stop-color="#8c5afb"/><stop offset="0.53" stop-color="#866afb"/><stop offset="0.66" stop-color="#7e81fb"/><stop offset="0.79" stop-color="#729efc"/><stop offset="0.9" stop-color="#65c2fc"/><stop offset="1" stop-color="#58e4fc"/></linearGradient></defs><g id="Layer_2" data-name="Layer 2"><g id="Layer_1-2" data-name="Layer 1"><circle class="cls-1" cx="87.06" cy="69" r="69"/><text class="cls-2" transform="translate(0 104.07)">run<tspan class="cls-3" x="74.3" y="0">time</tspan></text><rect class="cls-4" x="56.72" y="31.91" width="9.69" height="2.42" rx="1.21"/><rect class="cls-5" x="57.93" y="41.59" width="2.42" height="2.42" rx="1.21"/><rect class="cls-6" x="51.88" y="51.28" width="6.05" height="2.42" rx="1.21"/><rect class="cls-7" x="59.14" y="56.12" width="3.63" height="2.42" rx="1.21"/><path class="cls-8" d="M92,49.44h7.4c11.49,0,16.74-2.47,16.74-12V34.59c0-9.89-4.82-12.37-16.61-12.37H64a1.21,1.21,0,1,0,0,2.42h7.26a1.21,1.21,0,0,1,0,2.42H66.41a1.22,1.22,0,0,0,0,2.43h7.26a1.21,1.21,0,0,1,0,2.42H68.83a1.21,1.21,0,1,0,0,2.42,1.21,1.21,0,1,1,0,2.42H59.14a1.21,1.21,0,1,0,0,2.42h8.48a1.21,1.21,0,0,1,0,2.42H64A1.21,1.21,0,1,0,64,44h7.26a1.22,1.22,0,0,1,0,2.43H56.72a1.21,1.21,0,1,0,0,2.42h9.82v0a1.21,1.21,0,0,1,1.08,1.19,1.19,1.19,0,0,1-1.08,1.18v0h-5a1.21,1.21,0,1,0,0,2.42h9.69a1.21,1.21,0,0,1,0,2.42h-6a1.21,1.21,0,0,0,0,2.42h3.63a1.22,1.22,0,0,1,0,2.43H59.14a1.21,1.21,0,1,0,0,2.42H75.86v-15l24.64,15h16.17ZM75.86,30h23c6.17,0,7.84.72,7.84,5.13v2.23c0,4.47-1.79,5.19-7.84,5.19h-23Z"/></g></g></svg>