<?xml version="1.0" encoding="utf-8"?>
<!-- Generator: Adobe Illustrator 25.2.1, SVG Export Plug-In . SVG Version: 6.00 Build 0)  -->
<svg version="1.1" id="Layer_1" xmlns="http://www.w3.org/2000/svg" xmlns:xlink="http://www.w3.org/1999/xlink" x="0px" y="0px"
	 viewBox="0 0 103.9 116.5" style="enable-background:new 0 0 103.9 116.5;" xml:space="preserve">
<style type="text/css">
	.st0{fill:#12163A;}
	.st1{fill:#C3F587;}
</style>
<g id="Layer_2_1_">
	<g>
		<g id="Layer_1-2_8_">
			<path class="st0" d="M0,34.8v47c0,4,2.1,7.7,5.6,9.8L46.3,115c3.5,2,7.8,2,11.3,0l40.7-23.5c3.5-2,5.6-5.7,5.6-9.8v-47
				c0-4-2.1-7.7-5.6-9.8L57.6,1.5c-3.5-2-7.8-2-11.3,0L5.6,25C2.1,27,0,30.7,0,34.8z"/>
			<path class="st0" d="M21.3,47.2h7.4c0.7,0,1.2,0.5,1.2,1.2v0c0,0.7-0.5,1.2-1.2,1.2h-7.4c-0.7,0-1.2-0.5-1.2-1.2v0
				C20.1,47.8,20.7,47.2,21.3,47.2z"/>
			<path class="st0" d="M22.5,57L22.5,57c0.7,0,1.2,0.5,1.2,1.2v0c0,0.7-0.5,1.2-1.2,1.2h0c-0.7,0-1.2-0.5-1.2-1.2v0
				C21.3,57.6,21.9,57,22.5,57z"/>
			<path class="st0" d="M16.4,66.8h3.7c0.7,0,1.2,0.5,1.2,1.2v0c0,0.7-0.5,1.2-1.2,1.2h-3.7c-0.7,0-1.2-0.5-1.2-1.2v0
				C15.2,67.4,15.8,66.8,16.4,66.8z"/>
			<path class="st0" d="M23.8,71.7H25c0.7,0,1.2,0.5,1.2,1.2v0c0,0.7-0.5,1.2-1.2,1.2h-1.2c-0.7,0-1.2-0.5-1.2-1.2v0
				C22.6,72.3,23.1,71.7,23.8,71.7z"/>
			<g>
				<g>
					<path class="st1" d="M55.7,65h7.5c11.6,0,16.9-2.5,16.9-12.1V50c0-10-4.9-12.5-16.8-12.5H27.5c-0.7,0.1-1.2,0.7-1.1,1.3
						c0.1,0.6,0.5,1.1,1.1,1.1h7.3c0.7,0.1,1.2,0.7,1.1,1.3c-0.1,0.6-0.5,1.1-1.1,1.1h-4.9c-0.7,0.1-1.2,0.7-1.1,1.3
						c0.1,0.6,0.5,1.1,1.1,1.1h7.3c0.7,0,1.2,0.5,1.2,1.2s-0.5,1.2-1.2,1.2c0,0,0,0,0,0h-4.9c-0.7,0.1-1.2,0.7-1.1,1.3
						c0.1,0.6,0.5,1.1,1.1,1.1c0.7,0.1,1.2,0.7,1.1,1.3c-0.1,0.6-0.5,1.1-1.1,1.1h-9.8c-0.7,0.1-1.2,0.7-1.1,1.3
						c0.1,0.6,0.5,1.1,1.1,1.1h8.6c0.7,0,1.2,0.5,1.2,1.2s-0.5,1.2-1.2,1.2c0,0,0,0,0,0h-3.7c-0.7,0.1-1.2,0.7-1.1,1.3
						c0.1,0.6,0.5,1.1,1.1,1.1h7.3c0.7,0.1,1.2,0.7,1.1,1.3c-0.1,0.6-0.5,1.1-1.1,1.1H20.1c-0.7,0.1-1.2,0.7-1.1,1.3
						c0.1,0.6,0.5,1.1,1.1,1.1H30l0,0c0.7,0,1.2,0.5,1.2,1.2c0,0.7-0.5,1.2-1.2,1.2l0,0h-5c-0.7-0.1-1.3,0.4-1.3,1.1
						c-0.1,0.7,0.4,1.3,1.1,1.3c0.1,0,0.1,0,0.2,0h9.8c0.7,0.1,1.2,0.7,1.1,1.3c-0.1,0.6-0.5,1.1-1.1,1.1h-6.1
						c-0.7-0.1-1.3,0.4-1.3,1.1c-0.1,0.7,0.4,1.3,1.1,1.3c0.1,0,0.1,0,0.2,0h3.7c0.7,0,1.2,0.5,1.2,1.2s-0.5,1.2-1.2,1.2h-9.8
						c-0.7,0.1-1.2,0.7-1.1,1.3c0.1,0.6,0.5,1.1,1.1,1.1h16.9V63.9l24.9,15.1h16.3L55.7,65z M39.5,45.3h23.3c6.2,0,7.9,0.7,7.9,5.2
						v2.3c0,4.5-1.8,5.2-7.9,5.2H39.5V45.3z"/>
				</g>
			</g>
		</g>
	</g>
</g>
</svg>
