<svg xmlns="http://www.w3.org/2000/svg" xmlns:xlink="http://www.w3.org/1999/xlink" viewBox="0 0 205.51 37.12"><defs><style>.cls-1{fill:#fff;}.cls-2{fill:#c6ff7d;}.cls-3{fill:url(#linear-gradient);}</style><linearGradient id="linear-gradient" x1="3.28" y1="18.56" x2="58.42" y2="18.56" gradientUnits="userSpaceOnUse"><stop offset="0" stop-color="#c6ff7d"/><stop offset="0.15" stop-color="#c2f97c"/><stop offset="0.35" stop-color="#b6e979"/><stop offset="0.57" stop-color="#a3ce74"/><stop offset="0.81" stop-color="#89aa6d"/><stop offset="1" stop-color="#6f8666"/></linearGradient></defs><g id="Layer_2" data-name="Layer 2"><g id="Layer_1-2" data-name="Layer 1"><path class="cls-1" d="M76.66,29.32V20.15c0-4.73,2.07-6.66,7.42-6.66h2.83V17H84.2c-2.43,0-3.19.64-3.19,3.16v9.14Z"/><path class="cls-1" d="M97,29.32c-5.87,0-7.6-1.81-7.6-6.84v-9H93.8v8.88c0,2.68.91,3.24,3.57,3.24h4.55c2.84,0,3.57-.56,3.57-3.24V13.49h4.32v9c0,5-1.73,6.84-7.65,6.84Z"/><path class="cls-1" d="M129.23,29.32V20.5c0-2.63-.73-3.27-3.54-3.27H121c-2.74,0-3.53.64-3.53,3.27v8.82h-4.35v-9c0-5.05,1.72-6.86,7.59-6.86H126c5.9,0,7.62,1.81,7.62,6.86v9Z"/><path class="cls-1" d="M150,13.49c5.9,0,7.62,1.81,7.62,6.86v2.13c0,5-1.72,6.84-7.62,6.84h-8.82v4.73h-4.35V20.35c0-5.05,1.72-6.86,7.62-6.86Zm3.27,7c0-2.78-.76-3.27-3.82-3.27h-4.85c-2.75,0-3.42.64-3.42,3.24v5.17h8.3c3,0,3.79-.41,3.79-3.27Z"/><path class="cls-1" d="M166,29.32c-4.56,0-5.79-1.61-5.79-4.18V23.65c0-2.66,1.11-4.17,5.49-4.17h11.71v-.35c0-2-.75-2.55-2.68-2.55h-4.32V13.49h4.32c5.05,0,7,1.81,7,5.84v3.85c0,4.59-1.61,6.14-7.22,6.14Zm11.41-7.16H166.2c-1,0-1.63.35-1.63,1.61v1.08c0,1.11.67,1.49,1.78,1.49h8.17c2,0,2.92-.47,2.92-2.83Z"/><path class="cls-1" d="M189.07,21.72c0,1.76.7,2.34,2.48,2.34h9.73V13.49h4.23V29c0,3.53-1.67,5-5.61,5h-6.34V30.49h6c1.2,0,1.76-.38,1.76-1.7V27.51h-10c-4.73,0-6.52-1.78-6.52-5.61V13.49h4.3Z"/><rect class="cls-2" x="4.37" y="8.73" width="8.73" height="2.18" rx="1.09"/><rect class="cls-2" x="5.46" y="17.47" width="2.18" height="2.18" rx="1.09"/><rect class="cls-2" y="26.2" width="5.46" height="2.18" rx="1.09"/><rect class="cls-2" x="6.55" y="30.57" width="3.28" height="2.18" rx="1.09"/><path class="cls-3" d="M36.16,24.55h6.68c10.35,0,15.08-2.23,15.08-10.83V11.16C57.92,2.23,53.58,0,43,0h-32a1.09,1.09,0,1,0,0,2.18h6.55a1.1,1.1,0,0,1,0,2.19H13.1a1.09,1.09,0,0,0,0,2.18h6.55a1.09,1.09,0,0,1,0,2.18H15.28a1.1,1.1,0,0,0,0,2.19,1.09,1.09,0,1,1,0,2.18H6.55a1.09,1.09,0,1,0,0,2.18h7.64a1.1,1.1,0,0,1,0,2.19H10.92a1.09,1.09,0,1,0,0,2.18h6.55a1.1,1.1,0,0,1,0,2.19H4.37a1.09,1.09,0,0,0,0,2.18h8.85v0a1.08,1.08,0,0,1,0,2.14v0H8.73a1.1,1.1,0,0,0,0,2.19h8.74a1.09,1.09,0,1,1,0,2.18H12a1.09,1.09,0,0,0,0,2.18h3.27a1.1,1.1,0,1,1,0,2.19H6.55a1.09,1.09,0,0,0,0,2.18H21.63V23.62l22.21,13.5H58.42ZM21.63,7H42.39c5.57,0,7.07.65,7.07,4.62v2c0,4-1.61,4.68-7.07,4.68H21.63Z"/></g></g></svg>